<?xml version="1.0" encoding="UTF-8" standalone="no"?>
<!DOCTYPE svg PUBLIC "-//W3C//DTD SVG 20010904//EN"
              "http://www.w3.org/TR/2001/REC-SVG-20010904/DTD/svg10.dtd">

<svg xmlns="http://www.w3.org/2000/svg"
     width="1.01in" height="1.01333in"
     viewBox="0 0 303 304">
  <path id="Selection"
        fill="none" stroke="black" stroke-width="1"
        d="M 117.00,9.00
           C 117.00,9.00 141.00,5.01 141.00,5.01
             141.00,5.01 149.50,4.25 149.50,4.25
             149.50,4.25 154.25,14.00 154.25,14.00
             154.25,14.00 167.00,37.00 167.00,37.00
             167.00,37.00 145.00,47.60 145.00,47.60
             145.00,47.60 131.00,59.00 131.00,59.00
             121.76,42.69 119.39,27.15 117.00,9.00 Z
           M 163.00,5.00
           C 195.59,9.30 220.47,18.61 246.00,39.92
             254.53,47.04 263.02,55.58 269.00,65.00
             260.57,58.96 259.18,54.53 247.00,46.70
             226.77,33.69 203.44,29.80 180.00,34.00
             174.55,26.30 165.55,13.91 163.00,5.00 Z
           M 34.00,65.00
           C 36.43,59.30 43.51,51.45 48.01,47.04
             59.62,35.66 85.92,16.91 102.00,14.00
             102.00,14.00 104.00,32.00 104.00,32.00
             85.48,32.01 66.95,38.23 52.00,49.16
             52.00,49.16 34.00,65.00 34.00,65.00 Z
           M 26.00,156.00
           C 19.52,141.22 19.82,132.57 20.00,117.00
             20.09,109.80 22.00,102.77 24.34,96.00
             36.31,61.42 69.28,37.00 106.00,37.00
             107.23,44.97 110.74,53.71 114.17,61.00
             115.51,63.87 119.27,70.26 119.34,73.00
             119.41,75.67 112.35,88.96 110.81,93.00
             109.04,97.66 107.49,104.07 106.61,109.00
             106.18,111.47 106.08,115.88 104.98,117.82
             103.86,119.78 90.98,129.08 88.00,131.59
             79.66,138.63 73.07,146.98 67.00,156.00
             59.00,154.57 33.61,154.15 26.00,156.00 Z
           M 158.00,48.00
           C 165.13,42.35 180.88,38.11 190.00,38.25
             190.00,38.25 203.00,38.25 203.00,38.25
             212.45,37.93 220.25,40.42 229.00,43.81
             258.93,55.42 282.51,86.65 284.00,119.00
             257.17,125.06 247.27,128.66 219.00,123.75
             214.79,123.02 200.40,119.86 197.74,117.19
             195.91,115.36 195.70,110.61 195.20,108.00
             193.96,101.62 192.18,96.03 189.80,90.00
             183.48,74.05 171.67,58.34 158.00,48.00 Z
           M 151.00,60.00
           C 163.49,68.97 176.83,93.65 179.00,109.00
             168.58,103.92 156.04,93.82 148.59,85.00
             146.56,82.60 141.41,77.06 141.23,74.00
             141.00,70.11 148.36,62.77 151.00,60.00 Z
           M 26.00,75.00
           C 26.54,79.01 23.95,82.41 22.31,86.00
             19.47,92.20 18.17,96.39 16.65,103.00
             12.27,122.10 13.95,138.50 20.00,157.00
             20.00,157.00 5.00,160.00 5.00,160.00
             4.55,156.58 3.90,153.48 4.09,150.00
             5.86,118.79 11.50,102.45 26.00,75.00 Z
           M 131.00,89.00
           C 131.00,89.00 149.00,106.91 149.00,106.91
             149.00,106.91 162.00,118.00 162.00,118.00
             162.00,118.00 142.00,118.00 142.00,118.00
             142.00,118.00 122.00,120.00 122.00,120.00
             122.10,108.77 125.50,98.71 131.00,89.00 Z
           M 285.00,95.00
           C 288.12,97.34 293.35,109.94 292.22,113.78
             291.68,115.63 290.44,116.07 289.00,117.00
             289.00,117.00 285.00,95.00 285.00,95.00 Z
           M 248.00,203.00
           C 263.88,191.71 275.89,177.42 282.94,159.00
             284.92,153.81 286.58,148.46 287.58,143.00
             288.00,140.65 288.52,135.45 289.95,133.70
             291.61,131.68 294.61,131.38 297.00,131.00
             297.00,131.00 298.00,155.00 298.00,155.00
             297.96,177.93 290.29,203.17 279.00,223.00
             279.00,223.00 248.00,203.00 248.00,203.00 Z
           M 126.00,135.00
           C 142.20,132.09 159.19,131.86 175.00,137.00
             170.64,150.07 162.06,171.67 151.00,180.00
             140.33,169.09 128.37,150.31 126.00,135.00 Z
           M 282.00,135.00
           C 284.03,140.28 280.60,149.82 278.55,155.00
             272.45,170.42 257.88,191.92 242.00,198.00
             241.70,184.23 235.14,167.61 227.94,156.00
             227.94,156.00 216.00,139.00 216.00,139.00
             235.95,142.58 262.87,142.04 282.00,135.00 Z
           M 107.00,140.00
           C 107.00,140.00 113.31,156.00 113.31,156.00
             113.31,156.00 124.00,175.00 124.00,175.00
             124.00,175.00 105.00,166.28 105.00,166.28
             105.00,166.28 85.00,159.00 85.00,159.00
             91.38,149.48 97.32,145.57 107.00,140.00 Z
           M 190.00,141.00
           C 197.34,142.81 202.42,148.27 207.00,154.00
             216.11,165.41 226.07,183.62 229.00,198.14
             213.47,203.04 195.63,202.97 180.00,198.14
             176.68,197.28 166.29,193.94 166.18,189.90
             166.12,187.46 173.97,177.87 175.77,175.00
             180.88,166.86 188.55,150.40 190.00,141.00 Z
           M 7.00,177.00
           C 23.85,171.49 41.32,169.00 59.00,169.00
             56.80,176.78 50.06,190.91 51.16,198.96
             51.81,203.69 55.20,203.92 57.01,206.61
             58.63,209.00 58.97,216.97 59.00,220.00
             59.00,220.00 38.25,213.50 38.25,213.50
             38.25,213.50 19.25,212.25 19.25,212.25
             19.25,212.25 13.60,202.00 13.60,202.00
             13.60,202.00 7.00,177.00 7.00,177.00 Z
           M 66.00,194.00
           C 67.53,189.43 72.37,175.25 76.38,173.11
             79.13,171.64 87.01,174.38 90.00,175.34
             105.11,180.19 114.21,185.95 127.00,195.00
             121.65,198.81 116.21,198.55 110.00,199.17
             96.23,200.54 79.01,199.00 66.00,194.00 Z
           M 63.00,209.00
           C 63.00,209.00 77.00,212.85 77.00,212.85
             83.46,214.57 101.66,217.27 108.00,216.91
             108.00,216.91 126.00,214.92 126.00,214.92
             128.93,214.40 133.83,212.96 136.57,213.35
             142.58,214.22 150.62,228.77 153.58,234.00
             160.03,245.43 165.91,257.29 169.36,270.00
             170.23,273.22 172.75,280.83 170.96,283.69
             168.64,287.41 155.25,287.99 151.00,288.00
             148.94,288.00 144.09,288.21 142.38,287.43
             140.10,286.39 138.47,283.06 137.14,281.00
             134.09,276.31 130.48,271.26 126.87,267.00
             115.50,253.62 105.72,244.92 91.00,235.34
             91.00,235.34 76.00,227.03 76.00,227.03
             73.36,225.82 67.80,223.77 66.14,221.53
             64.48,219.30 63.55,212.02 63.00,209.00 Z
           M 236.00,209.00
           C 236.98,213.65 235.09,219.46 233.85,224.00
             229.46,240.01 221.77,252.38 209.00,263.00
             205.97,265.53 197.14,276.98 192.74,273.95
             191.14,272.86 191.04,269.74 190.64,268.00
             190.64,268.00 186.05,255.00 186.05,255.00
             181.98,243.87 177.07,233.28 171.13,223.00
             171.13,223.00 164.00,212.00 164.00,212.00
             173.31,213.31 180.02,215.95 190.00,216.00
             205.53,216.07 221.69,215.95 236.00,209.00 Z
           M 242.00,213.00
           C 247.75,215.81 258.39,223.14 264.00,227.02
             266.12,228.49 270.86,231.19 271.00,234.00
             271.10,235.96 268.98,238.49 267.86,240.00
             264.75,244.23 259.65,250.25 255.99,254.00
             244.26,266.00 219.29,284.03 203.00,288.40
             203.00,288.40 193.00,290.00 193.00,290.00
             193.00,290.00 192.50,284.00 192.50,284.00
             192.50,284.00 196.00,281.00 196.00,281.00
             215.11,270.27 229.11,253.49 236.77,233.00
             236.77,233.00 242.00,213.00 242.00,213.00 Z
           M 21.00,218.00
           C 33.48,218.04 47.31,221.68 59.00,225.95
             92.08,238.04 125.80,265.22 140.00,298.00
             125.27,295.36 115.48,294.26 101.00,288.95
             67.45,276.64 36.57,250.37 21.00,218.00 Z
           M 145.00,293.00
           C 145.00,293.00 152.00,293.00 152.00,293.00
             156.12,292.99 156.88,293.01 161.00,292.42
             162.92,292.15 169.04,291.03 170.57,291.66
             172.47,292.45 172.84,294.86 171.36,296.24
             170.13,297.38 165.77,297.55 164.00,297.73
             160.78,298.05 149.85,298.62 147.42,296.98
             145.79,295.88 145.62,294.67 145.00,293.00 Z" />
</svg>
